<?xml version="1.0" standalone="no"?>
<!DOCTYPE svg PUBLIC "-//W3C//DTD SVG 20010904//EN"
 "http://www.w3.org/TR/2001/REC-SVG-20010904/DTD/svg10.dtd">
<svg version="1.0" xmlns="http://www.w3.org/2000/svg"
 width="446.000000pt" height="446.000000pt" viewBox="0 0 446.000000 446.000000"
 preserveAspectRatio="xMidYMid meet">
<metadata>
Created by potrace 1.14, written by Peter Selinger 2001-2017
</metadata>
<g transform="translate(0.000000,446.000000) scale(0.100000,-0.100000)"
fill="#000000" stroke="none">
<path d="M1986 4298 c-26 -7 -60 -30 -98 -67 -72 -70 -96 -91 -104 -91 -4 0
-39 -21 -78 -47 -75 -49 -115 -88 -117 -113 -2 -43 -25 -129 -64 -246 -13 -39
-27 -92 -30 -116 -3 -25 -13 -74 -20 -109 -11 -49 -64 -316 -79 -394 -1 -5 -5
-16 -9 -22 -5 -7 -6 -13 -2 -13 3 0 -2 -14 -11 -31 -9 -18 -14 -45 -12 -60 3
-16 2 -29 -2 -29 -3 0 -6 -8 -7 -18 -2 -23 30 -61 79 -95 34 -22 36 -26 21
-38 -9 -8 -24 -15 -35 -15 -10 -1 -19 -2 -20 -4 -2 -1 -10 -3 -18 -5 -59 -12
-152 -40 -190 -57 -109 -48 -232 -117 -250 -139 -3 -4 -37 -27 -76 -52 -106
-69 -126 -94 -163 -205 -18 -53 -38 -108 -45 -121 -10 -18 -11 -32 -3 -58 13
-42 5 -50 -53 -57 -25 -2 -47 -5 -50 -5 -3 -1 -13 -16 -23 -33 -10 -18 -34
-44 -55 -58 -96 -65 -173 -157 -252 -305 -24 -44 -46 -82 -50 -85 -6 -5 -72
-139 -77 -155 -26 -98 -31 -141 -32 -266 0 -104 4 -159 16 -199 16 -57 19 -64
52 -143 11 -26 16 -45 10 -41 -12 7 -39 -14 -39 -30 0 -8 24 -12 73 -12 39 0
106 -3 147 -7 41 -4 136 -10 210 -13 74 -4 141 -10 148 -14 18 -9 -51 -56
-166 -112 -51 -26 -81 -46 -78 -54 3 -7 -1 -15 -8 -17 -12 -5 -14 -64 -7 -202
1 -21 4 -21 674 -22 369 -1 703 -2 740 -3 45 -1 76 4 91 13 21 14 25 13 49
-12 14 -15 32 -28 39 -29 87 -8 110 -7 142 6 22 9 35 20 32 27 -2 7 4 15 14
18 10 3 21 -1 24 -8 3 -10 161 -12 740 -12 405 0 736 3 736 6 0 3 -11 29 -25
56 -16 33 -24 68 -25 101 0 56 -18 80 -77 103 -45 18 -113 84 -113 109 0 12 3
22 8 23 4 0 26 2 50 5 36 5 51 1 97 -27 30 -18 55 -37 55 -41 0 -4 6 -8 13 -8
7 0 31 -13 53 -30 21 -16 42 -30 45 -30 8 0 54 -40 127 -109 31 -30 60 -54 65
-53 4 1 7 -2 7 -6 0 -4 16 -9 35 -10 24 -2 67 11 129 38 127 57 196 123 212
205 2 11 10 36 18 55 63 153 79 318 44 445 -11 39 -21 75 -22 80 -13 55 -29
105 -42 128 -8 15 -13 27 -10 27 13 0 -64 123 -131 210 -124 160 -143 185
-153 197 -6 7 -10 17 -10 23 0 5 -4 10 -9 10 -5 0 -18 15 -29 33 -22 38 -41
62 -96 121 -21 22 -63 73 -94 111 -31 39 -95 111 -143 160 -49 50 -100 106
-115 125 -15 19 -47 51 -70 70 -34 27 -42 40 -38 58 4 19 1 22 -18 17 -16 -4
-40 5 -78 30 -102 68 -135 84 -199 94 -35 6 -92 25 -130 45 -36 18 -115 50
-176 71 -117 40 -151 59 -122 71 9 3 14 10 11 15 -3 5 -1 9 5 9 26 0 29 104 5
172 -26 75 -64 274 -64 341 0 66 -10 105 -53 198 -13 30 -30 72 -37 94 -7 22
-16 45 -20 50 -6 9 -54 133 -55 145 -2 7 -28 66 -65 143 -29 61 -38 70 -84 92
-46 22 -88 55 -184 147 -39 38 -104 68 -141 67 -14 -1 -44 -6 -65 -11z m-1688
-3416 c2 -7 -1 -12 -8 -12 -6 0 -9 4 -6 9 4 5 1 12 -4 14 -6 3 -5 4 2 3 6 -1
14 -8 16 -14z m2492 -252 c0 -12 -8 -21 -22 -24 -78 -17 -117 -23 -141 -22
-15 1 -27 -1 -27 -4 0 -3 -15 -7 -32 -8 -42 -3 -87 -15 -220 -58 -123 -39
-135 -40 -140 -16 -4 22 109 73 202 91 36 7 73 17 83 23 10 5 40 11 67 13 48
4 112 14 116 18 2 1 28 3 58 4 50 3 56 1 56 -17z m-2162 -75 c-3 -4 -31 -7
-62 -9 -71 -4 -71 17 0 24 46 5 75 -2 62 -15z"/>
<path d="M0 519 c0 -40 3 -49 18 -50 9 0 33 -2 52 -3 59 -5 66 0 69 49 1 31
-2 45 -11 46 -7 1 -39 3 -70 4 l-58 4 0 -50z"/>
<path d="M384 278 c-3 -5 -41 -26 -84 -48 -43 -22 -81 -44 -85 -50 -6 -10 91
-11 975 -10 118 0 557 2 975 5 418 2 765 4 770 3 6 0 163 -2 350 -4 187 -1
356 -6 375 -9 32 -6 33 -8 16 -20 -14 -11 -86 -14 -331 -14 -173 -1 -321 -4
-329 -7 -9 -3 -16 -12 -16 -20 0 -12 65 -14 422 -12 392 3 421 4 424 20 1 10
-2 18 -7 18 -15 0 -10 28 7 34 26 10 94 7 117 -5 11 -7 36 -14 54 -16 29 -4
33 -2 33 18 0 12 -3 19 -6 16 -4 -3 -15 -2 -26 4 -11 6 -27 12 -37 14 -44 8
-170 49 -216 69 l-50 23 -749 -4 -748 -4 -42 -23 c-35 -20 -51 -23 -111 -18
-48 3 -79 11 -99 25 -28 20 -41 20 -803 22 -426 1 -776 -2 -779 -7z"/>
<path d="M1118 132 c-20 -4 -24 -22 -5 -23 165 -8 270 -1 226 16 -17 7 -195
12 -221 7z"/>
<path d="M22 119 c-12 -5 -22 -13 -22 -19 0 -7 45 -10 138 -8 85 2 136 7 135
13 -2 6 -28 11 -59 13 -37 2 -54 0 -49 -7 4 -8 -2 -8 -20 -1 -38 15 -96 19
-123 9z"/>
</g>
</svg>
